# xmcd CD database file
#
# Track frame offsets:
#	150
#	11935
#	26372
#	37252
#	50689
#	63840
#	75472
#	85082
#	96142
#	108072
#	121092
#	135882
#	146407
#	156857
#	167412
#	180405
#	192277
#	205615
#	220115
#	229642
#	239122
#	252620
#	262210
#	274140
#	283815
#	296560
#	307632
#
# Disc length: 4280 seconds
#
# Revision: 0
# Processed by: cddbd v1.5.2PL0 Copyright (c) Steve Scherf et al.
# Submitted via: CDex 1.70beta2
#
DISCID=7710b61b
DTITLE=Jones Classic Country - Jones Classic Country CCC-601
DYEAR=0000
DGENRE=Country
TTITLE0=Ray Price/Crazy Arms
TTITLE1=Lynn Anderson/Cry
TTITLE2=Jerry Reed/Amos Moses
TTITLE3=Narvol Felts/Lonely Teardrops
TTITLE4=Jim Reeves/Four Walls
TTITLE5=Tom T Hall/Ravishing Ruby
TTITLE6=Waylon Jennings/Brown Eyed Handsome Man
TTITLE7=Dave Dudley/Six Days On The Road
TTITLE8=Merle Haggard/Workin' Man Blues
TTITLE9=Kitty Wells/Making Believe
TTITLE10=Charley Pride/Kaw-Liga
TTITLE11=Tommy Duncan, Bob Wills and His Texas Playboys/San Antonio Rose
TTITLE12=Billy Walker/Charlie's Shoes
TTITLE13=David Houston/Have A Little Faith
TTITLE14=Merle Haggard/Sing Me Back Home
TTITLE15=Hank Williams Sr/My Bucket's Got A Hole In It
TTITLE16=Anne Murray/He Thinks I Still Care
TTITLE17=Dolly Parton/Mule Skinner Blues
TTITLE18=Tammy Wynette/Your Good Girl's Gonna Go Bad
TTITLE19=Chet Atkins/Yakety Axe
TTITLE20=Bobby Bare/Marie Laveau
TTITLE21=Roger Miller/Chug-A-Lug
TTITLE22=Dob Gibson/Sea Of Heartbreak
TTITLE23=Dottie West/Country Sunshine
TTITLE24=Lynn Anderson/Listen To A Country Song
TTITLE25=Everly Brothers/All I Have To Do Is Dream
TTITLE26=Hank Snow/I Don't Hurt anymore
EXTD=YEAR: 0000
EXTT0=
EXTT1=
EXTT2=
EXTT3=
EXTT4=
EXTT5=
EXTT6=
EXTT7=
EXTT8=
EXTT9=
EXTT10=
EXTT11=
EXTT12=
EXTT13=
EXTT14=
EXTT15=
EXTT16=
EXTT17=
EXTT18=
EXTT19=
EXTT20=
EXTT21=
EXTT22=
EXTT23=
EXTT24=
EXTT25=
EXTT26=
PLAYORDER=
